# xmcd
#
# Track frame offsets: 
#        150
#        12118
#        22190
#        34117
#        44633
#        55253
#        69680
#        82873
#        92080
#        102744
#        114711
#        123883
#        137095
#        146512
#        156738
#        167542
#        179756
#        191388
#        202025
#        215995
#        227584
#        242165
#        254645
#        263830
#        277359
#
# Disc length: 3870 seconds
#
# Revision: 0
# Processed by: cddbd v1.5.2PL0 Copyright (c) Steve Scherf et al.
# Submitted via: ExactAudioCopyFreeDBPlugin 1.0
#
DISCID=890f1c19
DTITLE=Various Artist - The Best Of Chess Records And Associated Labe
DTITLE=ls
DYEAR=2013
DGENRE=Blues
TTITLE0=The Miracles - I Need A Change
TTITLE1=Detroit Junior - Too Poor
TTITLE2=Tony Gideon - The Way You Move Me, Baby
TTITLE3=The T-Birds - Green Stamps
TTITLE4=Lucy Clark - So Sick
TTITLE5=Little Miss Cornshucks - No Teasing Around
TTITLE6=Eddie Fontaine - Nothin' Shakin' But The Leaves On The Trees
TTITLE7=The Marathons - Peanut Butter
TTITLE8=Mitty Collier - I've Got Love
TTITLE9=The Mandells - Darling, I'm Home
TTITLE10=Howlin' Wolf - Smokestack Lightning
TTITLE11=The Flamingos - I'll Be Home
TTITLE12=Joe Stamply - Creation Of Love
TTITLE13=The Majestics - Oasis (Part 1)
TTITLE14=The Twilighters - She Needs A Guy
TTITLE15=Lucky Clark - Let Me Be The Fool
TTITLE16=Jimmy McCracklin - Later On
TTITLE17=Clarence 'Frogman' Henry - Ain't Got No Home
TTITLE18=Bobby Lester and The Moonglows - Blue Velvet
TTITLE19=The Keytones - A Fool In Love
TTITLE20=John Lee Hooker - Sugar Mama
TTITLE21=The Radiants - Father Knows Best
TTITLE22=Jackie Cannon - Proof Of Your Love
TTITLE23=The Corsairs - Smoky Places
TTITLE24=Muddy Waters - I'm Your Hoochie Coochie Man
EXTD=
EXTT0=
EXTT1=
EXTT2=
EXTT3=
EXTT4=
EXTT5=
EXTT6=
EXTT7=
EXTT8=
EXTT9=
EXTT10=
EXTT11=
EXTT12=
EXTT13=
EXTT14=
EXTT15=
EXTT16=
EXTT17=
EXTT18=
EXTT19=
EXTT20=
EXTT21=
EXTT22=
EXTT23=
EXTT24=
PLAYORDER=
